<svg height="12197" preserveAspectRatio="none" width="1708" xmlns="http://www.w3.org/2000/svg" xmlns:xlink="http://www.w3.org/1999/xlink"><path d="M0 31L28 0l4 17L71 5v36l-33-4 8 30L0 31z" data-name="Layer 2" fill="#f4ee67" transform="translate(20 20)" id="s20-20"/><path d="M121.82 110c-6-14-17 3-24-43-1.32-27.06-17-36.7-27.53-40.12a15 15 0 10-18.38-.07C41.39 30.17 25.48 39.74 24.15 67c-7 46-18 29-24 43-3 16.8 38 26 60.84 26.07s63.79-9.28 60.83-26.07zm-61-85z" data-name="Layer 2" fill="#f9d128" transform="translate(20 107)" id="s20-107"/><path d="M121.82 110c-6-14-17 3-24-43-1.32-27.06-17-36.7-27.53-40.12a15 15 0 10-18.38-.07C41.39 30.17 25.48 39.74 24.15 67c-7 46-18 29-24 43-3 16.8 38 26 60.84 26.07s63.79-9.28 60.83-26.07zm-61-85z" data-name="Layer 2" fill="#bfbfbf" transform="translate(20 264)" id="s20-264"/><path d="M138.8 529c-5.7-13.3-16.2 2.9-22.8-40.9-1.3-25.7-16.2-34.9-26.2-38.2a14.3 14.3 0 002.6-20c-4.8-6.2-13.8-7.4-20-2.6s-7.4 13.7-2.6 20c.7 1 1.6 1.8 2.5 2.5-9.9 3.2-25.1 12.3-26.3 38.3-6.7 43.7-17.2 27.5-22.9 40.9-2.9 16 36.1 24.7 57.9 24.8 21.7 0 60.7-8.9 57.8-24.8zm-58-80.9h0z" fill="#f9d128" stroke="#000" stroke-miterlimit="10" stroke-width="6" id="s20-421"/><path d="M121.82 110c-6-14-17 3-24-43-1.32-27.06-17-36.7-27.53-40.12a15 15 0 10-18.38-.07C41.39 30.17 25.48 39.74 24.15 67c-7 46-18 29-24 43-3 16.8 38 26 60.84 26.07s63.79-9.28 60.83-26.07zm-61-85z" data-name="Layer 2" fill="#fff" transform="translate(20 578)" id="s20-578"/><g transform="translate(20 735)" id="s20-735"><defs><clipPath id="uid_0"><path d="M203 35c-36-28-72 2-81 37s-19 57-51 81c-18 24-47 68 22 106 61 28 112-80 112-80s76-107-2-144z" fill="none"/></clipPath></defs><g data-name="Layer 2"><g data-name="Layer 30"><circle cx="146" cy="146" fill="#3c0e04" r="146"/><path d="M203 35c-36-28-72 2-81 37s-19 57-51 81c-18 24-47 68 22 106 61 28 112-80 112-80s76-107-2-144z" fill="#e5965c"/><g clip-path="url(#uid_0)"><ellipse cx="94.5" cy="112.5" fill="#fff" rx="40.5" ry="33.5" transform="rotate(-55.89 94.5 112.5)"/></g></g></g></g><g transform="translate(20 1047)" id="s20-1047"><g data-name="Layer 2" id="uid_1"><path d="M0 0h52l-7 37L0 0zm130 13l-16 15 16 9V13zM35 169l33-52 20 52H35zM211 37l38 35 9-54-47 19zm80 91l-22 23h30l-8-23zm8-128l23 25 12-25h-35zm100 169l26-26 21 26h-47zM508 18l-32 38 49 16-17-54zm84 110l-20 41h60l-40-41zm46-36l-31 16 38 20-7-36z" fill="#176294" id="uid_2"/></g></g><g transform="translate(20 1236)" id="s20-1236"><defs><style>.cl1{fill:#405e70}</style></defs><g data-name="Layer 2" id="uid_3"><g id="uid_4"><rect class="cl1" height="113" rx="8.33" ry="8.33" width="113"/><rect fill="#fff" height="59" rx="7.87" ry="7.87" width="48" x="38" y="33"/><path class="cl1" d="M44 39h36v47H44z"/><path d="M25 73h7V27h38v-7H30.51A5.51 5.51 0 0025 25.51z" fill="#fefffd"/></g></g></g><path d="M64.89 117.86c-136-91-19-147 0-102 19-45 136 11 0 102z" data-name="Layer 2" fill="#f27575" transform="translate(20 1369)" id="s20-1369"/><path d="M64.89 117.86c-136-91-19-147 0-102 19-45 136 11 0 102z" data-name="Layer 2" fill="#bfbfbf" transform="translate(20 1507)" id="s20-1507"/><path d="M84.9 1758.9c-126.6-84.7-17.7-136.9 0-95 17.7-41.9 126.6 10.3 0 95z" fill="#f27575" stroke="#000" stroke-miterlimit="10" stroke-width="6" id="s20-1645"/><path d="M64.89 117.86c-136-91-19-147 0-102 19-45 136 11 0 102z" data-name="Layer 2" fill="#fff" transform="translate(20 1783)" id="s20-1783"/><g transform="translate(20 1921)" id="s20-1921"><g id="uid_6"><g id="uid_7"><path d="M57.8 0h1552.3c31.9 0 57.8 25.9 57.8 57.8v2116.3c0 31.9-25.9 57.9-57.8 57.9H57.8c-31.9 0-57.8-25.9-57.8-57.9V57.8C0 25.9 25.9 0 57.8 0z" fill="#1771ae"/><defs><path d="M57.8 0h1552.3c31.9 0 57.8 25.9 57.8 57.8v2116.3c0 31.9-25.9 57.9-57.8 57.9H57.8c-31.9 0-57.8-25.9-57.8-57.9V57.8C0 25.9 25.9 0 57.8 0z" id="uid_8"/></defs><clipPath id="uid_9"><use overflow="visible" xlink:href="#uid_8"/></clipPath><g clip-path="url(#uid_9)"><path d="M100 340l164-104v180zm388 12l-84 160 208-20zm208-26L644 60l224 72zm400 126l168-216 172 240zm412-216l28 90 60-90zM468 1588v244l256-122zm-328 80l42 260-222-96zm264 292l-40 168 144-52zm604-420l44 96 68-96zm88 292l144-84v212zm456-292l80 128 80-148zm-44 388l-184 200 228 40zm-752-684l-68-208 268 64zm510-564l-98 80 120 72zm170 260l-64 44 64 52zM232 756l32 184 120-156zm172 232l-76 72 76 20z" fill="#176294"/></g></g></g></g><path d="M0 0l50 92v196l60 36 62-38 82 38 70-36 70 36 62-34 68.5 37.5L594 288l65.5 37.5L722 288l64 26 70-32 148 62-40.5-103.5-1-180L900 12l-64.5 44.5L756 18l-71 39-69-39-63 38-71-34-71 32-67.5-29.5L283 58l-69-34-61 34L0 0z" data-name="Layer 2" fill="#e34e37" transform="translate(20 4173)" id="s20-4173"/><path d="M0 0l48 105v136l57 33 62-38 80 39 68-39 69 35 67-35 66 33 73-34 64 30 62-30 65 31 67-37 158 66-50-109V55l-62-40-59 40-84-37-69 36-71-33-66 32-70-35-72 38-66-31-62 31-67-34-61 35L0 0z" data-name="Layer 2" fill="#f8ec3c" transform="translate(20 4537)" id="s20-4537"/><path d="M89.35 15.88A54.77 54.77 0 0055.46 0a55.82 55.82 0 014 20.77 56 56 0 01-56 56c-1.16 0-2.31 0-3.46-.12a55 55 0 1089.35-60.77z" data-name="Layer 2" fill="#49b5ce" transform="translate(20 4852)" id="s20-4852"/><path d="M89.35 15.88A54.77 54.77 0 0055.46 0a55.82 55.82 0 014 20.77 56 56 0 01-56 56c-1.16 0-2.31 0-3.46-.12a55 55 0 1089.35-60.77z" data-name="Layer 2" fill="#bfbfbf" transform="translate(20 4982)" id="s20-4982"/><path d="M107.2 5131.3a49.47 49.47 0 00-31-14.5c2.4 6 3.7 12.5 3.7 19 0 28.2-22.9 51.1-51.2 51.1 0 0 0 0 0 0-1.1 0-2.1 0-3.2-.1 11 25.4 40.6 37.1 66 26.1s37.1-40.6 26.1-66c-2.4-5.9-6-11.2-10.4-15.6z" fill="#49b5ce" stroke="#000" stroke-miterlimit="10" stroke-width="6" id="s20-5112"/><path d="M89.35 15.88A54.77 54.77 0 0055.46 0a55.82 55.82 0 014 20.77 56 56 0 01-56 56c-1.16 0-2.31 0-3.46-.12a55 55 0 1089.35-60.77z" data-name="Layer 2" fill="#fff" transform="translate(20 5242)" id="s20-5242"/><g transform="translate(20 5372)" id="s20-5372"><defs><style>.cl3{fill:#fff}</style></defs><g data-name="Layer 2" id="uid_10"><g data-name="Layer 40" id="uid_11"><rect fill="#1771ae" height="113" rx="8.33" ry="8.33" width="113"/><path class="cl3" d="M67.5 17A28.5 28.5 0 1096 45.5 28.5 28.5 0 0067.5 17zm0 48A19.5 19.5 0 1187 45.5 19.5 19.5 0 0167.5 65z"/><path class="cl3" d="M44 60L21 88s2 8 9 8l26-31z"/></g></g></g><path d="M101.84 83.91a9.62 9.62 0 00-2.14 6.91l5.87 41.08c.31 2.18-1 3.11-3 2.07l-34-18.22a8.35 8.35 0 00-7 0L27.66 134c-1.94 1-3.27.11-3-2.07l5.87-41.08a9.62 9.62 0 00-2.14-6.91L.84 53.81c-1.49-1.62-.94-3.29 1.23-3.7l39.14-7.5a8.7 8.7 0 005.58-4.39L63.48 1.5c.91-2 2.4-2 3.31 0l16.69 36.72a8.7 8.7 0 005.58 4.39l39.14 7.5c2.16.41 2.71 2.08 1.23 3.7z" data-name="Layer 2" fill="#d688e2" transform="translate(20 5505)" id="s20-5505"/><path d="M101.84 83.91a9.62 9.62 0 00-2.14 6.91l5.87 41.08c.31 2.18-1 3.11-3 2.07l-34-18.22a8.35 8.35 0 00-7 0L27.66 134c-1.94 1-3.27.11-3-2.07l5.87-41.08a9.62 9.62 0 00-2.14-6.91L.84 53.81c-1.49-1.62-.94-3.29 1.23-3.7l39.14-7.5a8.7 8.7 0 005.58-4.39L63.48 1.5c.91-2 2.4-2 3.31 0l16.69 36.72a8.7 8.7 0 005.58 4.39l39.14 7.5c2.16.41 2.71 2.08 1.23 3.7z" data-name="Layer 2" fill="#bfbfbf" transform="translate(20 5660)" id="s20-5660"/><path d="M120 5898.1a9.14 9.14 0 00-2 6.6l5.6 39c.3 2.1-.9 3-2.8 2l-32.3-17.3c-2.1-1-4.5-1-6.6 0l-32.2 17.3c-1.8.9-3.1.1-2.8-2l5.6-39c.2-2.4-.5-4.7-2-6.6l-26.4-28.6c-1.4-1.5-.9-3.1 1.2-3.5l37.2-7.1a8.3 8.3 0 005.3-4.2l15.8-34.9c.9-1.9 2.3-1.9 3.1 0l15.9 34.9c1.1 2.1 3 3.6 5.3 4.2l37.1 7.1c2.1.4 2.6 2 1.2 3.5l-26.2 28.6z" fill="#d688e2" stroke="#000" stroke-miterlimit="10" stroke-width="6" id="s20-5815"/><path d="M101.84 83.91a9.62 9.62 0 00-2.14 6.91l5.87 41.08c.31 2.18-1 3.11-3 2.07l-34-18.22a8.35 8.35 0 00-7 0L27.66 134c-1.94 1-3.27.11-3-2.07l5.87-41.08a9.62 9.62 0 00-2.14-6.91L.84 53.81c-1.49-1.62-.94-3.29 1.23-3.7l39.14-7.5a8.7 8.7 0 005.58-4.39L63.48 1.5c.91-2 2.4-2 3.31 0l16.69 36.72a8.7 8.7 0 005.58 4.39l39.14 7.5c2.16.41 2.71 2.08 1.23 3.7z" data-name="Layer 2" fill="#fff" transform="translate(20 5970)" id="s20-5970"/><path d="M108.25 83.6a6.61 6.61 0 00-2.15 6.33l5 19.26c.55 2.13-.76 3.52-2.92 3.09L86 107.84a6.55 6.55 0 00-6.17 2.52l-12.5 18.38a2.54 2.54 0 01-4.5 0l-12.5-18.38a6.55 6.55 0 00-6.17-2.52L22 112.27c-2.16.43-3.47-1-2.92-3.09l5-19.26a6.61 6.61 0 00-2.15-6.33L1.25 67.51a2.68 2.68 0 01.19-4.64l19.3-12.62a6.45 6.45 0 002.59-6.12L18.85 21A2.5 2.5 0 0122 17.84l22.16 4.43a6.55 6.55 0 006.17-2.52L62.84 1.36a2.54 2.54 0 014.5 0l12.5 18.38A6.55 6.55 0 0086 22.27l22.16-4.43a2.5 2.5 0 013.17 3.16l-4.48 23.15a6.45 6.45 0 002.59 6.12l19.3 12.62a2.68 2.68 0 01.19 4.64z" data-name="Layer 2" fill="#ea7a2f" transform="translate(20 6125)" id="s20-6125"/><path d="M108.25 83.6a6.61 6.61 0 00-2.15 6.33l5 19.26c.55 2.13-.76 3.52-2.92 3.09L86 107.84a6.55 6.55 0 00-6.17 2.52l-12.5 18.38a2.54 2.54 0 01-4.5 0l-12.5-18.38a6.55 6.55 0 00-6.17-2.52L22 112.27c-2.16.43-3.47-1-2.92-3.09l5-19.26a6.61 6.61 0 00-2.15-6.33L1.25 67.51a2.68 2.68 0 01.19-4.64l19.3-12.62a6.45 6.45 0 002.59-6.12L18.85 21A2.5 2.5 0 0122 17.84l22.16 4.43a6.55 6.55 0 006.17-2.52L62.84 1.36a2.54 2.54 0 014.5 0l12.5 18.38A6.55 6.55 0 0086 22.27l22.16-4.43a2.5 2.5 0 013.17 3.16l-4.48 23.15a6.45 6.45 0 002.59 6.12l19.3 12.62a2.68 2.68 0 01.19 4.64z" data-name="Layer 2" fill="#bfbfbf" transform="translate(20 6276)" id="s20-6276"/><path d="M126.2 6509.7a6.2 6.2 0 00-2 6l4.8 18.3c.5 2-.7 3.4-2.8 2.9l-21.2-4.1c-2.3-.3-4.5.6-5.9 2.4l-11.9 17.5c-.6 1.2-2.1 1.6-3.3 1-.4-.2-.8-.6-1-1L71 6535.2a6.35 6.35 0 00-5.9-2.4L44 6537c-2.1.4-3.3-1-2.8-2.9l4.8-18.4c.5-2.2-.3-4.5-2-6l-19.7-15.3c-1.2-.8-1.5-2.3-.8-3.5.2-.4.6-.7 1-.9l18.4-12c1.8-1.3 2.8-3.6 2.5-5.8l-4.3-22c-.4-1.2.3-2.6 1.5-3 .5-.2 1-.2 1.5 0l21.1 4.2c2.3.3 4.5-.6 5.9-2.4l11.8-17.6c.6-1.2 2.1-1.6 3.3-1 .4.2.8.6 1 1l11.9 17.5c1.4 1.8 3.6 2.7 5.9 2.4l21.1-4.2c1.2-.4 2.6.2 3 1.5.2.5.2 1 0 1.5l-4.3 22.1c-.3 2.2.6 4.5 2.5 5.8l18.4 12c1.2.7 1.7 2.2 1.1 3.4-.2.4-.5.7-.9 1l-19.7 15.3z" fill="#ea7a2f" stroke="#000" stroke-miterlimit="10" stroke-width="6" id="s20-6427"/><path d="M108.25 83.6a6.61 6.61 0 00-2.15 6.33l5 19.26c.55 2.13-.76 3.52-2.92 3.09L86 107.84a6.55 6.55 0 00-6.17 2.52l-12.5 18.38a2.54 2.54 0 01-4.5 0l-12.5-18.38a6.55 6.55 0 00-6.17-2.52L22 112.27c-2.16.43-3.47-1-2.92-3.09l5-19.26a6.61 6.61 0 00-2.15-6.33L1.25 67.51a2.68 2.68 0 01.19-4.64l19.3-12.62a6.45 6.45 0 002.59-6.12L18.85 21A2.5 2.5 0 0122 17.84l22.16 4.43a6.55 6.55 0 006.17-2.52L62.84 1.36a2.54 2.54 0 014.5 0l12.5 18.38A6.55 6.55 0 0086 22.27l22.16-4.43a2.5 2.5 0 013.17 3.16l-4.48 23.15a6.45 6.45 0 002.59 6.12l19.3 12.62a2.68 2.68 0 01.19 4.64z" data-name="Layer 2" fill="#fff" transform="translate(20 6578)" id="s20-6578"/><g transform="translate(20 6729)" id="s20-6729"><defs><clipPath id="uid_12"><path d="M185.7 45.44c-24-15-51 10-61 20s-27 28-57 38-40 65-16 82 64 24 112-19c52-62 46-107 22-121z" fill="none"/></clipPath></defs><g data-name="Layer 2"><g data-name="Layer 37"><circle cx="119.57" cy="119.57" fill="#3c0e04" r="119.57"/><path d="M185.7 45.44c-24-15-51 10-61 20s-27 28-57 38-40 65-16 82 64 24 112-19c52-62 46-107 22-121z" fill="#fff"/><g clip-path="url(#uid_12)"><ellipse cx="100.2" cy="85.94" fill="#e5e1d6" rx="24.5" ry="21.5" transform="rotate(-36.66 100.2 85.93)"/></g></g></g></g><g transform="translate(20 6989)" id="s20-6989"><defs><style>.cl4{fill:#313e65}.cl5{fill:#d84d31}.cl6{fill:#3c0e04}</style></defs><g data-name="Layer 2" id="uid_13"><g data-name="Layer 32" id="uid_14"><rect fill="#fff" height="226" rx="6.61" ry="6.61" width="155"/><g data-name="Layer 27" id="uid_15"><rect class="cl4" height="93" rx="6.74" ry="6.74" width="65" x="6" y="6"/><rect class="cl4" height="93" rx="6.74" ry="6.74" width="65" x="84" y="6"/><rect class="cl4" height="93" rx="6.74" ry="6.74" width="65" x="6" y="129"/><rect class="cl4" height="93" rx="6.74" ry="6.74" width="65" x="84" y="129"/></g><rect class="cl5" height="40.96" rx="3.18" ry="3.18" width="26.92" x="10" y="10"/><path class="cl6" d="M18.78 34.58a3.34 3.34 0 011.17-4.68 4.57 4.57 0 002.34-1.76C22.87 27 24 25.8 25.21 25.8s4.1 1.17 2.93 4.1A14.67 14.67 0 0125.8 34c-1.17 1.75-5.27 3.5-7.02.58z"/><rect class="cl5" height="40.96" rx="3.18" ry="3.18" width="26.92" x="40.08" y="10"/><path class="cl6" d="M48.86 34.58A3.34 3.34 0 0150 29.89a4.57 4.57 0 002.34-1.76C53 27 54.13 25.8 55.3 25.8s4.1 1.17 2.93 4.1a14.67 14.67 0 01-2.35 4.1c-1.17 1.75-5.26 3.5-7.02.58z"/><rect class="cl5" height="40.96" rx="3.18" ry="3.18" width="26.92" x="10" y="54.33"/><path class="cl6" d="M18.78 78.91a3.34 3.34 0 011.17-4.68 4.57 4.57 0 002.34-1.76c.59-1.17 1.76-2.34 2.93-2.34s4.1 1.17 2.93 4.1a14.67 14.67 0 01-2.34 4.1c-1.18 1.75-5.28 3.51-7.03.58z"/><rect class="cl5" height="40.96" rx="3.18" ry="3.18" width="26.92" x="40.08" y="54.33"/><path class="cl6" d="M48.86 78.91A3.34 3.34 0 0150 74.23a4.57 4.57 0 002.34-1.76c.59-1.17 1.76-2.34 2.93-2.34s4.1 1.17 2.93 4.1a14.67 14.67 0 01-2.34 4.1c-1.15 1.75-5.24 3.51-7 .58z"/><rect class="cl5" height="40.96" rx="3.18" ry="3.18" width="26.92" x="88" y="9"/><path class="cl6" d="M96.78 33.58a3.34 3.34 0 011.17-4.68 4.57 4.57 0 002.34-1.76c.59-1.17 1.76-2.34 2.93-2.34s4.1 1.17 2.93 4.1a14.67 14.67 0 01-2.35 4.1c-1.17 1.75-5.27 3.5-7.02.58z"/><rect class="cl5" height="40.96" rx="3.18" ry="3.18" width="26.92" x="118.08" y="9"/><path class="cl6" d="M126.86 33.58a3.34 3.34 0 011.14-4.69 4.57 4.57 0 002.34-1.76c.59-1.17 1.76-2.34 2.93-2.34s4.1 1.17 2.93 4.1a14.67 14.67 0 01-2.34 4.1c-1.15 1.76-5.24 3.51-7 .59z"/><rect class="cl5" height="40.96" rx="3.18" ry="3.18" width="26.92" x="88" y="53.33"/><path class="cl6" d="M96.78 77.91a3.34 3.34 0 011.17-4.68 4.57 4.57 0 002.34-1.76c.59-1.17 1.76-2.34 2.93-2.34s4.1 1.17 2.93 4.1a14.67 14.67 0 01-2.34 4.1c-1.18 1.75-5.28 3.51-7.03.58z"/><rect class="cl5" height="40.96" rx="3.18" ry="3.18" width="26.92" x="118.08" y="53.33"/><path class="cl6" d="M126.86 77.91a3.34 3.34 0 011.14-4.68 4.57 4.57 0 002.34-1.76c.59-1.17 1.76-2.34 2.93-2.34s4.1 1.17 2.93 4.1a14.67 14.67 0 01-2.34 4.1c-1.15 1.75-5.24 3.51-7 .58z"/><rect class="cl5" height="40.96" rx="3.18" ry="3.18" width="26.92" x="10" y="177.33"/><path class="cl6" d="M18.78 201.91a3.34 3.34 0 011.17-4.68 4.57 4.57 0 002.34-1.76c.59-1.17 1.76-2.34 2.93-2.34s4.1 1.17 2.93 4.1a14.67 14.67 0 01-2.34 4.1c-1.18 1.75-5.28 3.51-7.03.58z"/><rect class="cl5" height="40.96" rx="3.18" ry="3.18" width="26.92" x="10" y="133"/><path class="cl6" d="M18.78 157.58a3.34 3.34 0 011.17-4.68 4.57 4.57 0 002.34-1.76c.59-1.17 1.76-2.34 2.93-2.34s4.1 1.17 2.93 4.1a14.67 14.67 0 01-2.35 4.1c-1.17 1.75-5.27 3.5-7.02.58z"/><rect class="cl5" height="40.96" rx="3.18" ry="3.18" width="26.92" x="40.08" y="133"/><path class="cl6" d="M48.86 157.58a3.34 3.34 0 011.14-4.69 4.57 4.57 0 002.34-1.76c.59-1.17 1.76-2.34 2.93-2.34s4.1 1.17 2.93 4.1a14.67 14.67 0 01-2.34 4.1c-1.15 1.76-5.24 3.51-7 .59z"/><rect class="cl5" height="40.96" rx="3.18" ry="3.18" width="26.92" x="40.08" y="177.33"/><path class="cl6" d="M48.86 201.91a3.34 3.34 0 011.14-4.68 4.57 4.57 0 002.34-1.76c.59-1.17 1.76-2.34 2.93-2.34s4.1 1.17 2.93 4.1a14.67 14.67 0 01-2.34 4.1c-1.15 1.75-5.24 3.51-7 .58z"/><rect class="cl5" height="40.96" rx="3.18" ry="3.18" width="26.92" x="88" y="133"/><path class="cl6" d="M96.78 157.58a3.34 3.34 0 011.17-4.68 4.57 4.57 0 002.34-1.76c.59-1.17 1.76-2.34 2.93-2.34s4.1 1.17 2.93 4.1a14.67 14.67 0 01-2.34 4.1c-1.18 1.75-5.28 3.5-7.03.58z"/><rect class="cl5" height="40.96" rx="3.18" ry="3.18" width="26.92" x="118.08" y="133"/><path class="cl6" d="M126.86 157.58a3.34 3.34 0 011.17-4.68 4.57 4.57 0 002.34-1.76c.59-1.17 1.76-2.34 2.93-2.34s4.1 1.17 2.93 4.1a14.67 14.67 0 01-2.34 4.1c-1.18 1.75-5.27 3.5-7.03.58z"/><rect class="cl5" height="40.96" rx="3.18" ry="3.18" width="26.92" x="88" y="177.33"/><path class="cl6" d="M96.78 201.91a3.34 3.34 0 011.17-4.68 4.57 4.57 0 002.34-1.76c.59-1.17 1.76-2.34 2.93-2.34s4.1 1.17 2.93 4.1a14.67 14.67 0 01-2.34 4.1c-1.18 1.75-5.28 3.51-7.03.58z"/><rect class="cl5" height="40.96" rx="3.18" ry="3.18" width="26.92" x="118.08" y="177.33"/><path class="cl6" d="M126.86 201.91a3.34 3.34 0 011.17-4.68 4.57 4.57 0 002.34-1.76c.59-1.17 1.76-2.34 2.93-2.34s4.1 1.17 2.93 4.1a14.67 14.67 0 01-2.34 4.1c-1.18 1.75-5.27 3.51-7.03.58z"/></g></g></g><g transform="translate(20 7235)" id="s20-7235"><defs><style>.cl7{fill:#d84d31}.cl8{fill:#3c0e04}</style></defs><g data-name="Layer 2" id="uid_16"><g data-name="Layer 24" id="uid_17"><rect fill="#fff" height="225" rx="8.38" ry="8.38" width="42"/><rect class="cl7" height="51.74" rx="3.18" ry="3.18" width="34" x="4" y="4"/><path class="cl8" d="M15.09 35c-2.22-3.7 1.48-5.91 1.48-5.91a5.77 5.77 0 003-2.22c.74-1.48 2.22-3 3.7-3s5.17 1.48 3.7 5.17c-.74 2.22-1.48 3-3 5.17s-6.67 4.53-8.88.79z"/><rect class="cl7" height="51.74" rx="3.18" ry="3.18" width="34" x="4" y="58.7"/><path class="cl8" d="M15.09 89.74c-2.22-3.7 1.48-5.91 1.48-5.91a5.77 5.77 0 003-2.22c.74-1.48 2.22-3 3.7-3s5.17 1.48 3.7 5.17c-.74 2.22-1.48 3-3 5.17s-6.67 4.48-8.88.79z"/><rect class="cl7" height="51.74" rx="3.18" ry="3.18" width="34" x="4" y="113.39"/><path class="cl8" d="M15.09 144.43c-2.22-3.7 1.48-5.91 1.48-5.91a5.77 5.77 0 003-2.22c.74-1.48 2.22-3 3.7-3s5.17 1.48 3.7 5.17c-.74 2.22-1.48 3-3 5.17s-6.67 4.49-8.88.79z"/><rect class="cl7" height="51.74" rx="3.18" ry="3.18" width="34" x="4" y="168.83"/><path class="cl8" d="M15.09 199.87c-2.22-3.7 1.48-5.91 1.48-5.91a5.77 5.77 0 003-2.22c.74-1.48 2.22-3 3.7-3s5.17 1.48 3.7 5.17c-.74 2.22-1.48 3-3 5.17s-6.67 4.49-8.88.79z"/></g></g></g><path d="M0 0l48 105v136l57 33 62-38 80 39 68-39 69 35 67-35 66 33 73-34 64 30 62-30 65 31 67-37 158 66-50-109V55l-62-40-59 40-84-37-69 36-71-33-66 32-70-35-72 38-66-31-62 31-67-34-61 35L0 0z" data-name="Layer 2" fill="#2e72ac" transform="translate(20 7480)" id="s20-7480"/><g transform="translate(20 7795)" id="s20-7795"><defs><style>.cl9{fill:#fff}.cl10{fill:#d84d31}.cl11{fill:#3c0e04}</style></defs><g data-name="Layer 2" id="uid_18"><g data-name="Layer 31" id="uid_19"><rect class="cl9" height="226" rx="6.61" ry="6.61" width="155"/><rect fill="#313e65" height="118" rx="6.58" ry="6.58" width="79" x="38" y="54"/><rect class="cl9" height="108" rx="5.67" ry="5.67" width="70" x="43" y="59"/><rect class="cl10" height="46" rx="3.18" ry="3.18" width="30.23" x="4" y="4"/><path class="cl11" d="M13.86 31.6c-2-3.29 1.31-5.26 1.31-5.26a5.13 5.13 0 002.63-2c.66-1.31 2-2.63 3.29-2.63s4.6 1.31 3.29 4.6c-.66 2-1.31 2.63-2.63 4.6s-5.92 3.98-7.89.69z"/><rect class="cl10" height="46" rx="3.18" ry="3.18" width="30.23" x="81.38" y="4"/><path class="cl11" d="M91.24 31.6c-2-3.29 1.31-5.26 1.31-5.26a5.13 5.13 0 002.63-2c.66-1.31 2-2.63 3.29-2.63s4.6 1.31 3.29 4.6c-.66 2-1.31 2.63-2.63 4.6s-5.92 3.98-7.89.69z"/><rect class="cl10" height="46" rx="3.18" ry="3.18" width="30.23" x="43.19" y="4"/><path class="cl11" d="M53 31.6c-2-3.29 1.31-5.26 1.31-5.26a5.13 5.13 0 002.63-2c.66-1.31 2-2.63 3.29-2.63s4.6 1.31 3.29 4.6c-.66 2-1.31 2.63-2.63 4.6S55 34.89 53 31.6z"/><rect class="cl10" height="46" rx="3.18" ry="3.18" width="30.23" x="120.57" y="4"/><path class="cl11" d="M130.43 31.6c-2-3.29 1.31-5.26 1.31-5.26a5.13 5.13 0 002.63-2c.66-1.31 2-2.63 3.29-2.63s4.6 1.31 3.29 4.6c-.66 2-1.31 2.63-2.63 4.6s-5.92 3.98-7.89.69z"/><rect class="cl10" height="46" rx="3.18" ry="3.18" width="30.23" x="4" y="176"/><path class="cl11" d="M13.86 203.6c-2-3.29 1.31-5.26 1.31-5.26a5.13 5.13 0 002.63-2c.66-1.31 2-2.63 3.29-2.63s4.6 1.31 3.29 4.6c-.66 2-1.31 2.63-2.63 4.6s-5.92 3.98-7.89.69z"/><rect class="cl10" height="46" rx="3.18" ry="3.18" width="30.23" x="81.38" y="176"/><path class="cl11" d="M91.24 203.6c-2-3.29 1.31-5.26 1.31-5.26a5.13 5.13 0 002.63-2c.66-1.31 2-2.63 3.29-2.63s4.6 1.31 3.29 4.6c-.66 2-1.31 2.63-2.63 4.6s-5.92 3.98-7.89.69z"/><rect class="cl10" height="46" rx="3.18" ry="3.18" width="30.23" x="43.19" y="176"/><path class="cl11" d="M53 203.6c-2-3.29 1.31-5.26 1.31-5.26a5.13 5.13 0 002.63-2c.66-1.31 2-2.63 3.29-2.63s4.6 1.31 3.29 4.6c-.66 2-1.31 2.63-2.63 4.6s-5.89 3.98-7.89.69z"/><rect class="cl10" height="46" rx="3.18" ry="3.18" width="30.23" x="120.57" y="176"/><path class="cl11" d="M130.43 203.6c-2-3.29 1.31-5.26 1.31-5.26a5.13 5.13 0 002.63-2c.66-1.31 2-2.63 3.29-2.63s4.6 1.31 3.29 4.6c-.66 2-1.31 2.63-2.63 4.6s-5.92 3.98-7.89.69z"/><rect class="cl10" height="46" rx="3.18" ry="3.18" width="30.23" x="4" y="61"/><path class="cl11" d="M13.86 88.6c-2-3.29 1.31-5.26 1.31-5.26a5.13 5.13 0 002.63-2c.66-1.31 2-2.63 3.29-2.63s4.6 1.31 3.29 4.6c-.66 2-1.31 2.63-2.63 4.6s-5.92 3.98-7.89.69z"/><rect class="cl10" height="46" rx="3.18" ry="3.18" width="30.23" x="4" y="119"/><path class="cl11" d="M13.86 146.6c-2-3.29 1.31-5.26 1.31-5.26a5.13 5.13 0 002.63-2c.66-1.31 2-2.63 3.29-2.63s4.6 1.31 3.29 4.6c-.66 2-1.31 2.63-2.63 4.6s-5.92 3.98-7.89.69z"/><rect class="cl10" height="46" rx="3.18" ry="3.18" width="30.23" x="121" y="61"/><path class="cl11" d="M130.86 88.6c-2-3.29 1.31-5.26 1.31-5.26a5.13 5.13 0 002.63-2c.66-1.31 2-2.63 3.29-2.63s4.6 1.31 3.29 4.6c-.66 2-1.31 2.63-2.63 4.6s-5.92 3.98-7.89.69z"/><rect class="cl10" height="46" rx="3.18" ry="3.18" width="30.23" x="121" y="119"/><path class="cl11" d="M130.86 146.6c-2-3.29 1.31-5.26 1.31-5.26a5.13 5.13 0 002.63-2c.66-1.31 2-2.63 3.29-2.63s4.6 1.31 3.29 4.6c-.66 2-1.31 2.63-2.63 4.6s-5.92 3.98-7.89.69z"/><rect class="cl10" height="46" rx="3.18" ry="3.18" width="30.23" x="46" y="65"/><path class="cl11" d="M55.86 92.6c-2-3.29 1.31-5.26 1.31-5.26a5.13 5.13 0 002.63-2c.66-1.31 2-2.63 3.29-2.63s4.6 1.31 3.29 4.6c-.66 2-1.31 2.63-2.63 4.6s-5.92 3.98-7.89.69z"/><rect class="cl10" height="46" rx="3.18" ry="3.18" width="30.23" x="46" y="114"/><path class="cl11" d="M55.86 141.6c-2-3.29 1.31-5.26 1.31-5.26a5.13 5.13 0 002.63-2c.66-1.31 2-2.63 3.29-2.63s4.6 1.31 3.29 4.6c-.66 2-1.31 2.63-2.63 4.6s-5.92 3.98-7.89.69z"/><rect class="cl10" height="46" rx="3.18" ry="3.18" transform="translate(-1.02 1.12)" width="30.23" x="80" y="65"/><path class="cl11" d="M89.91 92.66c-2-3.26 1.25-5.27 1.25-5.27a5.13 5.13 0 002.61-2c.64-1.32 1.94-2.65 3.25-2.67s4.62 1.26 3.34 4.56c-.63 2-1.28 2.64-2.57 4.63s-5.87 4.01-7.88.75z"/><rect class="cl10" height="46" rx="3.18" ry="3.18" width="30.23" x="80" y="114"/><path class="cl11" d="M89.86 141.6c-2-3.29 1.31-5.26 1.31-5.26a5.13 5.13 0 002.63-2c.66-1.31 2-2.63 3.29-2.63s4.6 1.31 3.29 4.6c-.66 2-1.31 2.63-2.63 4.6s-5.92 3.98-7.89.69z"/></g></g></g><g transform="translate(20 8041)" id="s20-8041"><defs><style>.cl12{fill:#d84d31}.cl13{fill:#3c0e04}</style></defs><g data-name="Layer 2" id="uid_20"><g data-name="Layer 24" id="uid_21"><rect fill="#fff" height="79" rx="7.83" ry="7.83" width="206"/><rect class="cl12" height="70" rx="3.18" ry="3.18" width="46" x="5" y="5"/><path class="cl13" d="M20 47c-3-5 2-8 2-8s3-1 4-3 3-4 5-4 7 2 5 7c-1 3-2 4-4 7s-9 6-12 1z"/><rect class="cl12" height="70" rx="3.18" ry="3.18" width="46" x="55" y="5"/><path class="cl13" d="M70 47c-3-5 2-8 2-8s3-1 4-3 3-4 5-4 7 2 5 7c-1 3-2 4-4 7s-9 6-12 1z"/><rect class="cl12" height="70" rx="3.18" ry="3.18" width="46" x="104" y="5"/><path class="cl13" d="M119 47c-3-5 2-8 2-8s3-1 4-3 3-4 5-4 7 2 5 7c-1 3-2 4-4 7s-9 6-12 1z"/><rect class="cl12" height="70" rx="3.18" ry="3.18" width="46" x="155" y="5"/><path class="cl13" d="M170 47c-3-5 2-8 2-8s3-1 4-3 3-4 5-4 7 2 5 7c-1 3-2 4-4 7s-9 6-12 1z"/></g></g></g><g transform="translate(20 8140)" id="s20-8140"><defs><style>.cl14{fill:#002a8b}.cl15{fill:#001669}</style></defs><g data-name="Layer 2" id="uid_22"><g data-name="Layer 48" id="uid_23"><path d="M8.85 1.84L133.84 0a4.81 4.81 0 014.46 2.85l34.5 77.64a4.81 4.81 0 008.72.14l25.17-52A4.81 4.81 0 01211 26h104.39a4.81 4.81 0 014.34 6.88L233 214a4.81 4.81 0 00-.06 4l84.14 191.23a4.81 4.81 0 01-4.4 6.74H222.9a4.81 4.81 0 01-4.24-2.53l-38.07-70.94a4.81 4.81 0 00-8.61.27l-44.65 97.33a4.81 4.81 0 01-4.48 2.8L4.7 440.13a4.81 4.81 0 01-4.16-7l111.33-215.95a4.81 4.81 0 000-4.44L4.66 8.88a4.81 4.81 0 014.19-7.04z" fill="#fff"/><path d="M24.02 14.95l104-2 48 107 41-83 84 1-83 175 83 191h-72l-53-109-61 134h-96l109-217-104-197z" fill="#2e72ac"/><path class="cl14" d="M25.02 14.95h64l-2 41 34 32 2 49 32 27 10 49 37 28 4 50 36 29 5 46 30 38h-48l-204-389zm277 23l-84 175-26-58 30-33 3-47 41-37h36z"/><path class="cl14" d="M115.02 428.95l63-132-31-65-11 65-41 45-11 52-30 35h61z"/><path class="cl15" d="M24.02 14.95l205 389h22l-217-389h-10zm278 23l-84 175-4-9 80-166h8z"/><path class="cl15" d="M115.02 428.95l65-134-7-10-71 144h13z"/></g></g></g><g transform="translate(20 8603)" id="s20-8603"><defs><style>.cl16{fill:#002a8b}.cl17{fill:#001669}.cl18{fill:#f6e778}.cl19{fill:#f7bdb6}</style></defs><g data-name="Layer 2" id="uid_24"><g data-name="Layer 48" id="uid_25"><rect fill="#fff" height="630" rx="18.14" ry="18.14" width="420"/><rect fill="#ed3a14" height="589" rx="12" ry="12" width="376" x="22" y="20"/><path d="M69 98l104-2 48 107 41-83 84 1-83 175 83 191h-72l-53-109-61 134H64l109-217L69 98z" fill="#2e72ac"/><path class="cl16" d="M70 98h64l-2 41 34 32 2 49 32 27 10 49 37 28 4 50 36 29 5 46 30 38h-48L70 98zm277 23l-84 175-26-58 30-33 3-47 41-37h36z"/><path class="cl16" d="M160 512l63-132-31-65-11 65-41 45-11 52-30 35h61z"/><path class="cl17" d="M69 98l205 389h22L79 98H69zm278 23l-84 175-4-9 80-166h8z"/><path class="cl17" d="M160 512l65-134-7-10-71 144h13z"/><path class="cl18" d="M293 260s20-16 28-31c10-21 8-41 26-41 7 2 27 17 4 51-24 25-58 21-58 21z"/><path class="cl19" d="M293 260s55-10 54-72c7 2 27 17 4 51-24 25-58 21-58 21zm-6 25s14.62-5.79 26-2c12 4 25 12 34 19 20 21 18-6 15-7-5-7-13-16-27-20-36-7-48 10-48 10z"/><path class="cl18" d="M287 285s14.62-5.79 26-2c12 4 25 12 34 19 7.5 7.87 11.91 9 14.33 7.28C333 260 287 285 287 285zm0 15s30 36 35 57c3 17 42 27 31-12-18-42-66-45-66-45z"/><path class="cl19" d="M287 300s62 46 61 70.84c5.91-2.73 9.33-10.49 5-25.84-18-42-66-45-66-45z"/><path class="cl18" d="M131.89 272s-20-16-28-31c-10-21-8-41-26-41-7 2-27 17-4 51 24 25 58 21 58 21z"/><path class="cl19" d="M131.89 272s-55-10-54-72c-7 2-27 17-4 51 24 25 58 21 58 21zm6 25s-14.62-5.79-26-2c-12 4-25 12-34 19-20 21-18-6-15-7 5-7 13-16 27-20 36-7 48 10 48 10z"/><path class="cl18" d="M137.89 297s-14.62-5.79-26-2c-12 4-25 12-34 19-7.5 7.87-11.91 9-14.33 7.28C91.89 272 137.89 297 137.89 297zm0 15s-30 36-35 57c-3 17-42 27-31-12 18-42 66-45 66-45z"/><path class="cl19" d="M137.89 312s-62 46-61 70.84c-5.91-2.73-9.33-10.49-5-25.84 18-42 66-45 66-45z"/><circle class="cl18" cx="359.5" cy="169.5" r="5.5"/><circle class="cl18" cx="372" cy="138" r="8"/><circle class="cl18" cx="377" cy="107" r="8"/><path class="cl19" d="M358.59 175.34a5.5 5.5 0 011.75-10.86c-.34 5.01.02 3.04-1.75 10.86zm12.06-29.8a8 8 0 012.6-15.79zm4.14-30.78a8 8 0 114.14-15.45z"/><circle class="cl18" cx="64.47" cy="167.5" r="5.5"/><circle class="cl18" cx="51.97" cy="136" r="8"/><circle class="cl18" cx="46.97" cy="105" r="8"/><path class="cl19" d="M65.38 173.34a5.5 5.5 0 10-1.75-10.86c.3 5.01-.02 3.04 1.75 10.86zm-12.06-29.8a8 8 0 00-2.6-15.79zm-4.15-30.78A8 8 0 0045 97.31z"/><circle class="cl18" cx="350.5" cy="396.5" r="5.5"/><circle class="cl18" cx="363" cy="428" r="8"/><circle class="cl18" cx="368" cy="459" r="8"/><path class="cl19" d="M349.59 391a5.5 5.5 0 101.75 10.86c-.34-5.02.02-3.04-1.75-10.86zm12.06 29.46a8 8 0 002.6 15.79zm4.14 30.78a8 8 0 104.14 15.45z"/><circle class="cl18" cx="63.5" cy="418.5" r="5.5"/><circle class="cl18" cx="51" cy="450" r="8"/><circle class="cl18" cx="46" cy="481" r="8"/><path class="cl19" d="M64.41 412.66a5.5 5.5 0 11-1.75 10.86c.34-5.01-.02-3.04 1.75-10.86zm-16.2 60.58a8 8 0 11-4.14 15.45z"/><circle class="cl19" cx="123" cy="63" r="7"/><circle class="cl19" cx="144.5" cy="68.5" r="4.5"/><circle class="cl19" cx="306" cy="68" r="7"/><circle class="cl19" cx="284.5" cy="73.5" r="4.5"/><circle class="cl19" cx="225" cy="141" r="5"/><circle class="cl19" cx="224.5" cy="116.5" r="3.5"/><path class="cl19" d="M224 105V89c-14-32-69-47-69-47s45 19 69 63zm0 0V89c14-32 69-47 69-47s-45 19-69 63zM106 42c-20-7-30 10-32 12s-5.87 16.34 10 10c11-8 5-11 22-22zm220.09 0c20-7 30 10 32 12s5.87 16.34-10 10c-11-8-5-11-22-22z"/><circle class="cl19" cx="135" cy="41" r="3"/><circle class="cl19" cx="120" cy="40" r="2"/><circle class="cl19" cx="303.5" cy="40.5" r="2.5"/><circle class="cl19" cx="317" cy="41" r="2" transform="rotate(-57.65 317.03 41)"/><circle class="cl19" cx="120" cy="547" r="7"/><circle class="cl19" cx="141.5" cy="541.5" r="4.5"/><circle class="cl19" cx="303" cy="542" r="7"/><circle class="cl19" cx="281.5" cy="536.5" r="4.5"/><path class="cl19" d="M221 505v16c-14 32-69 47-69 47s45-19 69-63zm0 0v16c14 32 69 47 69 47s-45-19-69-63zm-118 63c-20 7-30-10-32-12s-5.87-16.34 10-10c11 8 5 11 22 22zm220.09 0c20 7 30-10 32-12s5.87-16.34-10-10c-11 8-5 11-22 22z"/><circle class="cl19" cx="132" cy="569" r="3"/><circle class="cl19" cx="117" cy="570" r="2"/><circle class="cl19" cx="300.5" cy="569.5" r="2.5"/><circle class="cl19" cx="314" cy="569" r="2" transform="rotate(-32.35 313.93 568.94)"/><path class="cl19" d="M51.57 442a8.37 8.37 0 01-2.67 16.53c.47-7.63-.02-4.63 2.67-16.53z"/></g></g></g><g transform="translate(20 9253)" id="s20-9253"><defs><clipPath id="uid_26" transform="translate(-225.41 -629.49)"><path d="M426 680c-21-30-52-6-63 0-32 28-57 29-76 44s-45 53-18 92c30.25 43.7 84 33 128-9s50-97 29-127z" fill="none"/></clipPath><style>.cl20{fill:#c5935b}.cl21{fill:#b39f86}</style></defs><g data-name="Layer 2" id="uid_27"><g data-name="Layer 34" id="uid_28"><circle cx="125.1" cy="125.1" fill="#3c0e04" r="125.1"/><path d="M426 680c-21-30-52-6-63 0-32 28-57 29-76 44s-45 53-18 92c30.25 43.7 84 33 128-9s50-97 29-127z" fill="#fffdba" transform="translate(-225.41 -629.49)"/><g clip-path="url(#uid_26)"><ellipse class="cl20" cx="326" cy="695.5" rx="37" ry="26.5" transform="rotate(-34.23 -808.81 746.83)"/><path class="cl21" d="M287 844s5-19 27-35 54-16 71-35 13 12-23 27-67 51-67 51zm130-184c-2.44-3.92-65.62 54.79-55 49 9.56-5.21 66.19-49.12 67-44zm2 54c7-11-30 31-69 54-22 23 22-9 35-13s34-36 34-41z" transform="translate(-225.41 -629.49)"/><ellipse class="cl21" cx="315.3" cy="764.21" rx="8.55" ry="6.01" transform="rotate(-36.66 -747.48 789.62)"/><ellipse class="cl21" cx="299.5" cy="796" rx="12.5" ry="10" transform="rotate(-36.66 -763.28 821.4)"/><circle class="cl20" cx="-225.41" cy="-629.49"/></g></g></g></g><g fill="none" fill-rule="evenodd" id="s20-9524"><path d="M75.58 80A4.41 4.41 0 0080 75.59V4.42A4.42 4.42 0 0075.58 0H4.42A4.42 4.42 0 000 4.42v71.17A4.42 4.42 0 004.42 80h71.16z" fill="#738D9F" transform="translate(20 9524)"/><path d="M59.76 19.8H19.97a4.93 4.93 0 00-4.94 4.92L15 54.25a4.95 4.95 0 004.97 4.92h39.8c2.74 0 4.97-2.2 4.97-4.92V24.72a4.95 4.95 0 00-4.98-4.93zm0 9.84l-19.9 12.3-19.89-12.3v-4.92l19.9 12.3 19.9-12.3v4.92z" fill="#FFF" transform="translate(20 9524)"/></g><g fill="none" fill-rule="evenodd" id="s20-9624"><path d="M75.58 80A4.41 4.41 0 0080 75.59V4.42A4.42 4.42 0 0075.58 0H4.42A4.42 4.42 0 000 4.42v71.17A4.42 4.42 0 004.42 80h71.16z" fill="#3D5A98" transform="translate(20 9624)"/><path d="M55.22 80V49.66h10.32l1.54-12.14H55.22v-7.76c0-3.52.96-5.91 5.93-5.91h6.35V12.97a83.6 83.6 0 00-9.25-.48c-9.14 0-15.4 5.66-15.4 16.06v8.96H32.5v12.14h10.34V80h12.38z" fill="#FFF" transform="translate(20 9624)"/></g><g transform="translate(20 9724)" id="s20-9724"><style>.cl22{fill:#d2b31d}.cl23{fill:#f67464}.cl24{fill:#78a7c5}</style><ellipse class="cl22" cx="106.4" cy="314.8" rx="71.5" ry="53.1" transform="rotate(-47.89 106.44 314.8)"/><ellipse class="cl22" cx="309.5" cy="310.8" rx="53.1" ry="71.5" transform="rotate(-52.07 309.55 310.81)"/><ellipse class="cl22" cx="106.4" cy="116.8" rx="53.1" ry="71.5" transform="rotate(-42.11 106.44 116.8)"/><ellipse class="cl23" cx="98.4" cy="210.7" rx="98.4" ry="60.1"/><ellipse class="cl22" cx="309.5" cy="116.8" rx="71.5" ry="53.1" transform="rotate(-37.93 309.55 116.84)"/><ellipse class="cl23" cx="318.7" cy="210.7" rx="98.4" ry="60.1"/><ellipse class="cl24" cx="206.6" cy="98.4" rx="60.1" ry="98.4"/><ellipse class="cl24" cx="206.6" cy="323" rx="60.1" ry="98.4"/><ellipse class="cl22" cx="78.4" cy="276.5" rx="71.5" ry="53.1" transform="rotate(-29.18 78.38 276.54)"/><ellipse class="cl22" cx="272" cy="337.9" rx="53.1" ry="71.5" transform="rotate(-33.35 272 337.9)"/><ellipse class="cl22" cx="141.9" cy="89" rx="53.1" ry="71.5" transform="rotate(-23.39 141.91 89)"/><ellipse class="cl23" cx="104.2" cy="175.4" rx="60.1" ry="98.4" transform="rotate(-71.28 104.18 175.36)"/><ellipse class="cl22" cx="334.3" cy="154.2" rx="71.5" ry="53.1" transform="rotate(-19.21 334.3 154.2)"/><ellipse class="cl23" cx="312.8" cy="246.1" rx="60.1" ry="98.4" transform="rotate(-71.28 312.83 246.1)"/><ellipse class="cl24" cx="242.7" cy="103.7" rx="98.4" ry="60.1" transform="rotate(-71.28 242.69 103.7)"/><ellipse class="cl24" cx="170.6" cy="316.4" rx="98.4" ry="60.1" transform="rotate(-71.28 170.63 316.41)"/></g><g data-name="Layer 2" transform="translate(20 10166)" id="s20-10166"><path d="M319 .24c2.07-.74 3 .27 2 2.25l-20.52 42.8a21 21 0 00-1.73 7.61v360a8.07 8.07 0 01-3.39 6.13l-44.22 27.75a7.56 7.56 0 01-6.9.21l-26-14.17a9.67 9.67 0 00-7.23-.43l-42.57 17a10.19 10.19 0 01-7.29-.3l-30.84-15.42a9.58 9.58 0 00-7.23-.15L90.4 448.25a9.58 9.58 0 01-7.23-.15l-30.84-15.42a10.19 10.19 0 00-7.29-.3l-42.57 17c-2 .82-3-.17-2.15-2.19l19.87-46.64a23.61 23.61 0 001.58-7.68l1-353a7 7 0 013.62-5.73l44.75-21.51a9.24 9.24 0 017.18.06l22.85 11.41a9.64 9.64 0 007.23.16l28.69-12.75a9.46 9.46 0 017.21.21l21.9 11.33a9.73 9.73 0 007.24.29l30.63-12.9a10.08 10.08 0 017.28.2l29.81 14.5a10.93 10.93 0 007.36.4z" fill="#e7422a"/><rect fill="#2f3d67" height="366" rx="12" ry="12" width="245" x="38.75" y="45.89"/></g><g fill="none" fill-rule="evenodd" id="s20-10636"><path d="M75.58 80A4.41 4.41 0 0080 75.59V4.42A4.42 4.42 0 0075.58 0H4.42A4.42 4.42 0 000 4.42v71.17A4.42 4.42 0 004.42 80h71.16z" fill="#738D9F" transform="translate(20 10636)"/><path d="M47.95 10671.75H42.1v26h35.1v-26h-7.15" stroke="#FFF" stroke-linecap="round" stroke-linejoin="round" stroke-width="6.5"/><path d="M43.63 25.81V49.4a3.9 3.9 0 11-7.8 0V26.15l-1.56 1.55a3.9 3.9 0 11-5.51-5.51l8.38-8.38a3.9 3.9 0 015.51 0l8.3 8.3a3.9 3.9 0 11-5.5 5.52l-1.82-1.82z" fill="#FFF" fill-rule="nonzero" transform="translate(20 10636)"/></g><g transform="translate(20 10736)" id="s20-10736"><g data-name="Layer 2" id="uid_30"><path d="M28.1 128.6V4.2Q28.1 0 48.4 0t20.3 4.2v98h30.8q3.6 0 5 9.4a72.65 72.65 0 01.6 9.4 82.21 82.21 0 01-.6 9.8q-1.6 9.6-5.2 9.6H37.7a8.2 8.2 0 01-7-3.6 13.64 13.64 0 01-2.6-8.2zm35.4 213.8q-28.1 0-45.8-18.4T0 270.3q0-35.3 17.9-53.5t46.2-18.2q28.3 0 45.7 17.9t17.4 54.2q0 36.3-17.8 54t-45.9 17.7zm.1-105.4q-9.6 0-16.1 8.8T41 270.5q0 15.9 6.2 24.4t16.3 8.5q10.1 0 16.4-8.6t6.3-24.6q0-16-6.5-24.6T63.6 237zm20 300.2q0 4-19.8 4t-19.8-4V436.8H20q-3.4 0-4.8-9.2a67.84 67.84 0 010-18q1.4-9.2 4.8-9.2h87q3.4 0 4.8 9.2a67.79 67.79 0 010 18q-1.4 9.2-4.8 9.2H83.6zM89.3 656q3.8 0 3.8 14a64.65 64.65 0 01-.9 9.9q-.9 5.7-3.3 5.7H63.5v20h36.8q3.4 0 4.6 8.8a52 52 0 01.6 8.1 66.6 66.6 0 01-1.2 11.1q-1.2 6.8-4 6.8H31.9q-7.6 0-7.6-6.2V605.6q0-5.2 4.6-5.2h71.6q4.2 0 4.2 17.7t-4.2 17.7h-37V656zM52.8 937.6q0 3.2-19 3.2-19.2 0-19.2-3V807.4q0-7 7.4-7h38.2q52.6 0 52.6 41a51.74 51.74 0 01-4.8 22.5A39.66 39.66 0 0194.4 880l25.2 42q-1.6 4.8-10.4 11-12 8.6-19.8 8.6T77.8 936L59 892.2h-6.2zm0-101.8v30h1q19 0 19-15.8 0-7.2-3.7-10.7T57 835.8zm-9 270.2v-71.2H29.6q-3.4 0-4.8-8.6a46.63 46.63 0 010-17.2q1.4-8.6 4.8-8.6h67.2q3.4 0 4.8 8.6a62 62 0 010 17.2q-1.4 8.6-4.8 8.6H83.4v71.2h14q3.4 0 4.8 8.6a61.92 61.92 0 010 17.2q-1.4 8.6-4.8 8.6H30q-3.4 0-4.8-8.6a62 62 0 010-17.2q1.4-8.6 4.8-8.6zm6-111.4q-1.8 0-4.6-4-3.6-5.6-3.6-9.4t1.2-5q32.6-18 33.2-18 2 0 5 4.8 4.6 7 4.6 13.2a4.38 4.38 0 01-1 3.2q-34.4 15.2-34.8 15.2zm52.3 346.2q-17.4 0-18.8-5.6l-6.6-25.8H44.9l-5.8 24.8q-1.2 6.2-19.2 6.2-9.6 0-14.2-1.1t-4.6-1.7l35.4-135.4q0-1.6 27.4-1.6t27.4 1.6l34.6 135.6q0 1.4-9.2 2.2t-14.6.8zM49.9 1284h21l-9-41.4h-1.2z" fill="#f8ef20" data-name="Layer 49" id="uid_31"/></g></g><g fill="none" fill-rule="evenodd" id="s20-12097"><path d="M75.58 80A4.41 4.41 0 0080 75.59V4.42A4.42 4.42 0 0075.58 0H4.42A4.42 4.42 0 000 4.42v71.17A4.42 4.42 0 004.42 80h71.16z" fill="#1DA1F2" transform="translate(20 12097)"/><path d="M30.72 60.32c18.87 0 29.2-15.63 29.2-29.19 0-.44 0-.89-.04-1.33A20.97 20.97 0 0065 24.5a20.48 20.48 0 01-5.9 1.6 10.3 10.3 0 004.52-5.67 20.56 20.56 0 01-6.52 2.5 10.27 10.27 0 00-17.48 9.35 29.12 29.12 0 01-21.14-10.72 10.27 10.27 0 003.18 13.7A10.18 10.18 0 0117 33.97v.13c0 4.89 3.44 9.1 8.23 10.06-1.51.41-3.1.47-4.63.17a10.27 10.27 0 009.58 7.13A20.58 20.58 0 0115 55.7a29.04 29.04 0 0015.72 4.6" fill="#FFF" fill-rule="nonzero" transform="translate(20 12097)"/></g></svg>